<svg width="40" height="40" viewBox="0 0 40 40" fill="none" xmlns="http://www.w3.org/2000/svg">
<path d="M18.1318 12.0078L18.4998 11.9978H33.4998C35.1598 11.9977 36.7569 12.6326 37.9637 13.7725C39.1704 14.9123 39.8954 16.4706 39.9898 18.1278L39.9998 18.4978V33.4978C40 35.1581 39.3647 36.7555 38.2245 37.9623C37.0843 39.1691 35.5255 39.8938 33.8678 39.9878L33.4998 39.9978H18.4998C16.8396 39.998 15.2422 39.3627 14.0354 38.2225C12.8286 37.0823 12.1038 35.5235 12.0098 33.8658L11.9998 33.4998V18.4998C11.9997 16.8396 12.635 15.2422 13.7752 14.0354C14.9154 12.8286 16.4742 12.1038 18.1318 12.0098V12.0078ZM33.4998 14.9978H18.4998C17.6215 14.9979 16.7752 15.3282 16.1291 15.9232C15.4829 16.5182 15.0841 17.3344 15.0118 18.2098L14.9998 18.4978V33.4978C14.9999 34.3765 15.3305 35.2231 15.9259 35.8693C16.5214 36.5155 17.3381 36.914 18.2138 36.9858L18.4998 36.9978H33.4998C34.3785 36.9978 35.2251 36.6672 35.8713 36.0718C36.5175 35.4763 36.916 34.6596 36.9878 33.7838L36.9998 33.4978V18.4978C36.9998 17.5696 36.6311 16.6793 35.9747 16.023C35.3183 15.3666 34.4281 14.9978 33.4998 14.9978ZM25.9998 17.9998C26.3977 17.9998 26.7792 18.1579 27.0605 18.4392C27.3418 18.7205 27.4998 19.102 27.4998 19.4998V24.4958H32.4998C32.8977 24.4958 33.2792 24.6539 33.5605 24.9352C33.8418 25.2165 33.9998 25.598 33.9998 25.9958C33.9998 26.3937 33.8418 26.7752 33.5605 27.0565C33.2792 27.3378 32.8977 27.4958 32.4998 27.4958H27.4998V32.4998C27.4998 32.8977 27.3418 33.2792 27.0605 33.5605C26.7792 33.8418 26.3977 33.9998 25.9998 33.9998C25.602 33.9998 25.2205 33.8418 24.9392 33.5605C24.6579 33.2792 24.4998 32.8977 24.4998 32.4998V27.4958H19.4998C19.102 27.4958 18.7205 27.3378 18.4392 27.0565C18.1579 26.7752 17.9998 26.3937 17.9998 25.9958C17.9998 25.598 18.1579 25.2165 18.4392 24.9352C18.7205 24.6539 19.102 24.4958 19.4998 24.4958H24.4998V19.4998C24.4998 19.102 24.6579 18.7205 24.9392 18.4392C25.2205 18.1579 25.602 17.9998 25.9998 17.9998ZM27.1638 4.46584L27.2678 4.81984L28.6538 9.99584H25.5478L24.3718 5.59584C24.253 5.15163 24.0478 4.73518 23.768 4.3703C23.4881 4.00542 23.1391 3.69926 22.7409 3.46932C22.3427 3.23938 21.9031 3.09016 21.4471 3.0302C20.9912 2.97023 20.528 3.00069 20.0838 3.11984L5.59584 7.00384C4.7501 7.23064 4.02009 7.76621 3.54986 8.50486C3.07964 9.24352 2.90337 10.1316 3.05584 10.9938L3.11984 11.2898L7.00384 25.7778C7.18602 26.4586 7.56949 27.0686 8.10405 27.5279C8.63861 27.9871 9.29937 28.2743 9.99984 28.3518V31.3638C8.69949 31.2863 7.45237 30.8202 6.42004 30.0257C5.3877 29.2312 4.61772 28.145 4.20984 26.9078L4.10584 26.5558L0.223843 12.0658C-0.206152 10.4626 -0.00648552 8.75558 0.781898 7.29484C1.57028 5.8341 2.88764 4.73032 4.46384 4.20984L4.81984 4.10584L19.3078 0.223843C20.9111 -0.206152 22.6181 -0.00648552 24.0788 0.781898C25.5396 1.57028 26.6434 2.88764 27.1638 4.46384V4.46584Z" fill="#908294"/>
</svg>
