<svg width="48" height="43" viewBox="0 0 48 43" fill="none" xmlns="http://www.w3.org/2000/svg">
<path d="M7.5 9.5C7.10218 9.5 6.72064 9.34196 6.43934 9.06066C6.15804 8.77936 6 8.39782 6 8C6 7.60218 6.15804 7.22064 6.43934 6.93934C6.72064 6.65804 7.10218 6.5 7.5 6.5H40.5C40.8978 6.5 41.2794 6.65804 41.5607 6.93934C41.842 7.22064 42 7.60218 42 8C42 8.39782 41.842 8.77936 41.5607 9.06066C41.2794 9.34196 40.8978 9.5 40.5 9.5H7.5ZM13.5 3.5C13.1022 3.5 12.7206 3.34196 12.4393 3.06066C12.158 2.77936 12 2.39782 12 2C12 1.60218 12.158 1.22064 12.4393 0.93934C12.7206 0.658035 13.1022 0.5 13.5 0.5H34.5C34.8978 0.5 35.2794 0.658035 35.5607 0.93934C35.842 1.22064 36 1.60218 36 2C36 2.39782 35.842 2.77936 35.5607 3.06066C35.2794 3.34196 34.8978 3.5 34.5 3.5H13.5ZM0 38C0 39.1935 0.474106 40.3381 1.31802 41.182C2.16193 42.0259 3.30653 42.5 4.5 42.5H43.5C44.6935 42.5 45.8381 42.0259 46.682 41.182C47.5259 40.3381 48 39.1935 48 38V17C48 15.8065 47.5259 14.6619 46.682 13.818C45.8381 12.9741 44.6935 12.5 43.5 12.5H4.5C3.30653 12.5 2.16193 12.9741 1.31802 13.818C0.474106 14.6619 0 15.8065 0 17L0 38ZM4.5 39.5C4.10218 39.5 3.72064 39.342 3.43934 39.0607C3.15804 38.7794 3 38.3978 3 38V17C3 16.6022 3.15804 16.2206 3.43934 15.9393C3.72064 15.658 4.10218 15.5 4.5 15.5H43.5C43.8978 15.5 44.2794 15.658 44.5607 15.9393C44.842 16.2206 45 16.6022 45 17V38C45 38.3978 44.842 38.7794 44.5607 39.0607C44.2794 39.342 43.8978 39.5 43.5 39.5H4.5Z" fill="#908294"/>
</svg>
