<svg width="41" height="38" viewBox="0 0 41 38" fill="none" xmlns="http://www.w3.org/2000/svg">
<path d="M39.6668 14.9997H38.3335V6.99967C38.3335 6.64605 38.193 6.30691 37.943 6.05686C37.6929 5.80681 37.3538 5.66634 37.0002 5.66634H5.00018C4.68446 5.67149 4.37716 5.56442 4.133 5.36421C3.88883 5.16399 3.72364 4.88362 3.66685 4.57301V4.09301C3.72364 3.7824 3.88883 3.50202 4.133 3.30181C4.37716 3.10159 4.68446 2.99452 5.00018 2.99967H36.4402C36.7938 2.99967 37.1329 2.8592 37.383 2.60915C37.633 2.3591 37.7735 2.01996 37.7735 1.66634C37.7735 1.31272 37.633 0.973581 37.383 0.723532C37.1329 0.473484 36.7938 0.333008 36.4402 0.333008H5.00018C3.93932 0.333008 2.9219 0.754435 2.17176 1.50458C1.42161 2.25473 1.00018 3.27214 1.00018 4.33301C0.990824 4.49287 0.990824 4.65314 1.00018 4.81301V32.2397C1.00542 32.9576 1.152 33.6674 1.43158 34.3286C1.71115 34.9899 2.11823 35.5896 2.62957 36.0935C3.14092 36.5974 3.74651 36.9957 4.41178 37.2655C5.07704 37.5354 5.78895 37.6716 6.50685 37.6663H37.0002C37.3538 37.6663 37.6929 37.5259 37.943 37.2758C38.193 37.0258 38.3335 36.6866 38.3335 36.333V28.333H39.6668C40.0205 28.333 40.3596 28.1925 40.6097 27.9425C40.8597 27.6924 41.0002 27.3533 41.0002 26.9997V16.333C41.0002 15.9794 40.8597 15.6402 40.6097 15.3902C40.3596 15.1401 40.0205 14.9997 39.6668 14.9997ZM35.6668 34.9997H6.50685C5.76525 35.0068 5.05082 34.7209 4.51897 34.204C3.98712 33.6871 3.68087 32.9812 3.66685 32.2397V8.173C4.09965 8.29843 4.55 8.35247 5.00018 8.333H35.6668V14.9997H26.3335C24.5654 14.9997 22.8697 15.702 21.6195 16.9523C20.3692 18.2025 19.6668 19.8982 19.6668 21.6663C19.6668 23.4344 20.3692 25.1301 21.6195 26.3804C22.8697 27.6306 24.5654 28.333 26.3335 28.333H35.6668V34.9997ZM38.3335 25.6663H26.3335C25.2726 25.6663 24.2552 25.2449 23.5051 24.4948C22.7549 23.7446 22.3335 22.7272 22.3335 21.6663C22.3335 20.6055 22.7549 19.5881 23.5051 18.8379C24.2552 18.0878 25.2726 17.6663 26.3335 17.6663H38.3335V25.6663Z" fill="#908294"/>
</svg>
